<svg width="24" height="24" viewBox="0 0 24 24" fill="none" xmlns="http://www.w3.org/2000/svg">
<path d="M12 2.00005C6.4898 2.00005 2 6.48984 2 12C2 17.5103 6.4898 22 12 22C17.5102 22 22 17.5103 22 12C22 6.48984 17.5102 2.00005 12 2.00005ZM13.0204 12L9.55102 15.5715C9.34694 15.6735 9.2449 15.7756 9.04082 15.7756C8.83674 15.7756 8.63265 15.6735 8.53061 15.5715C8.22449 15.2654 8.22449 14.7551 8.53061 14.449L11.3878 11.5919V6.89801C11.3878 6.48984 11.6939 6.08168 12.2041 6.08168C12.7143 6.08168 13.0204 6.3878 13.0204 6.89801V12Z" fill="#030D45"/>
</svg>
